<?xml version="1.0" encoding="utf-8" ?>
<svg xmlns="http://www.w3.org/2000/svg" xmlns:xlink="http://www.w3.org/1999/xlink" width="48" height="48" viewBox="0 0 48 48">
	<defs>
		<mask id="mask5771014534" style="mask-type:alpha">
			<path d="M0 0L48 0L48 48L0 48L0 0Z" fill-rule="nonzero" transform="matrix(1 0 0 1 0 0)" fill="rgb(0, 0, 0)"/>
		</mask>
	</defs>
	<g mask="url(#mask5771014534)">
		<defs>
			<mask id="mask5136651019" style="mask-type:alpha">
				<path d="M0 0L48 0L48 48L0 48L0 0Z" fill-rule="nonzero" transform="matrix(1 0 0 1 0 0)" fill="rgb(0, 0, 0)"/>
			</mask>
		</defs>
		<g mask="url(#mask5136651019)">
			<path d="M35.625 27L28.5 27C27.6716 27 27 27.6716 27 28.5C27 29.3284 27.6716 30 28.5 30L35.625 30Q37.7947 30 39.6964 29.4291Q41.6814 28.8332 43.1672 27.6773Q44.7546 26.4422 45.6078 24.6971Q46.5 22.8722 46.5 20.6625Q46.5 18.4492 45.4739 16.59Q44.557 14.9286 42.9062 13.7023Q41.447 12.6184 39.5832 11.9944Q38.4644 11.6198 37.3258 11.4506Q36.9045 8.9585 35.8492 6.79846Q34.5822 4.2051 32.5163 2.31532Q30.4905 0.462188 27.9132 -0.519283Q25.3379 -1.5 22.5 -1.5Q19.9074 -1.5 17.5863 -0.676364Q15.4382 0.0859058 13.6531 1.50406Q12.0017 2.81593 10.8024 4.57219Q9.95128 5.81868 9.40355 7.17449Q7.58117 7.45223 5.92629 8.11827Q3.76856 8.98668 2.14868 10.4147Q0.422268 11.9367 -0.509762 13.9347Q-1.5 16.0575 -1.5 18.525Q-1.5 21.0126 -0.468701 23.1968Q0.517385 25.2851 2.32423 26.8457Q4.08164 28.3635 6.38014 29.1793Q8.69273 30 11.25 30L16.5 30C17.3284 30 18 29.3284 18 28.5C18 27.6716 17.3284 27 16.5 27L11.25 27Q9.2093 27 7.38353 26.352Q5.61608 25.7248 4.28514 24.5753Q2.95898 23.4299 2.24409 21.9158Q1.5 20.34 1.5 18.525Q1.5 16.7228 2.20898 15.203Q2.87614 13.7728 4.13257 12.6651Q5.36625 11.5775 7.04637 10.9013Q8.72616 10.2253 10.6419 10.0433Q10.7509 10.0329 10.8572 10.0069Q10.9635 9.98078 11.065 9.93954Q11.1664 9.8983 11.2607 9.84277Q11.3551 9.78725 11.4404 9.7186Q11.5257 9.64996 11.6001 9.56966Q11.6746 9.48936 11.7365 9.3991Q11.7985 9.30885 11.8467 9.21054Q11.8949 9.11224 11.9284 9.00799Q12.3906 7.56628 13.2799 6.26394Q14.2232 4.88255 15.5191 3.85305Q16.9127 2.74594 18.5896 2.15091Q20.4239 1.5 22.5 1.5Q24.786 1.5 26.8455 2.2843Q28.8879 3.06208 30.4914 4.52889Q32.1368 6.03404 33.1537 8.11535Q34.2298 10.3181 34.5081 12.9809Q34.522 13.1134 34.5589 13.2414Q34.5959 13.3694 34.6549 13.4888Q34.7138 13.6083 34.7929 13.7155Q34.872 13.8227 34.9687 13.9142Q35.0654 14.0058 35.1768 14.0789Q35.2882 14.152 35.4106 14.2044Q35.5331 14.2567 35.6629 14.2866Q35.7927 14.3166 35.9258 14.3232Q37.2915 14.3908 38.6307 14.8392Q40.0415 15.3115 41.1173 16.1106Q43.5 17.8806 43.5 20.6625Q43.5 23.6174 41.325 25.3095Q40.2818 26.1211 38.8339 26.5558Q37.3541 27 35.625 27Z" fill-rule="evenodd" transform="matrix(1 0 0 1 1.5 5.98031)" fill="rgb(156, 163, 175)"/>
			<path d="M7.5 3.62132L10.9393 7.06066L13.0607 4.93934L6 -2.12132L-1.06066 4.93934L1.06066 7.06066L4.5 3.62132L4.5 24.0394L7.5 24.0394L7.5 3.62132Z" fill-rule="evenodd" transform="matrix(1 0 0 1 18 17.9803)" fill="rgb(156, 163, 175)"/>
		</g>
	</g>
</svg>
